<?xml version="1.0" encoding="utf-8"?>
<!-- Generator: Adobe Illustrator 19.0.0, SVG Export Plug-In . SVG Version: 6.00 Build 0)  -->
<svg version="1.1" id="logo" xmlns="http://www.w3.org/2000/svg" xmlns:xlink="http://www.w3.org/1999/xlink" x="0px" y="0px"
	 viewBox="0 0 462.9 126.8" style="enable-background:new 0 0 462.9 126.8;" xml:space="preserve">
<style type="text/css">
	.st0{fill:#030B26;}
	.st1{fill:none;stroke:#FFFFFF;stroke-miterlimit:10;}
	.st2{fill:#0A3A82;}
</style>
<g>
	<g>
		<path class="st0" d="M147.9,89.3h-9.2c-1.5,0-2.3-0.8-2.3-2.3V21.8c0-1.5,0.8-2.3,2.3-2.3h9.2c1.5,0,2.3,0.8,2.3,2.3v30.9h0.2
			c0.6-1.7,1.7-4,3.3-6.7l16.4-24.2c0.9-1.5,2.3-2.3,4.2-2.3h10.6c0.8,0,1.3,0.2,1.5,0.7c0.2,0.5,0,1.1-0.6,1.8l-20.5,28.5l22.8,36
			c0.5,0.9,0.6,1.5,0.3,2c-0.3,0.5-1,0.7-2,0.7h-7.9c-2.5,0-4.2-0.8-5.1-2.3L157,60.5l-6.8,8V87C150.2,88.5,149.4,89.3,147.9,89.3z"
			/>
		<path class="st0" d="M222,89.3h-9.2c-1.5,0-2.3-0.8-2.3-2.3V63.8L190.9,22c-0.3-0.7-0.3-1.2,0.1-1.7c0.3-0.5,0.8-0.7,1.5-0.7h11.4
			c1.1,0,2,0.8,2.6,2.3l10.8,26.4h0.8l10.6-26.4c0.5-1.5,1.4-2.3,2.6-2.3h11.4c0.7,0,1.2,0.2,1.6,0.7c0.3,0.4,0.3,1-0.1,1.7
			l-19.7,41.9V87C224.2,88.5,223.5,89.3,222,89.3z"/>
		<path class="st0" d="M263.7,89.3h-9.2c-1.5,0-2.3-0.8-2.3-2.3V21.8c0-1.5,0.8-2.3,2.3-2.3h25.6c5.6,0,10,1.6,13.1,4.7
			c3.2,3.1,4.7,7.5,4.7,13.1v8.5c0,8.2-3.2,13.6-9.6,16.3v0.4l11.5,24.2c0.6,1.7,0,2.6-1.8,2.6h-8.7c-1.3,0-2.2-0.1-2.8-0.4
			c-0.6-0.3-1-0.9-1.4-1.8l-10.8-23.4h-7.2c-0.9,0-1.3,0.4-1.3,1.2V87C265.9,88.5,265.2,89.3,263.7,89.3z M267.1,52.5h10.6
			c2.3,0,4-0.5,5.1-1.5s1.6-2.5,1.6-4.7v-8.5c0-2.2-0.5-3.9-1.6-4.9c-1.1-1-2.8-1.5-5.1-1.5h-10.6c-0.8,0-1.2,0.4-1.2,1.2v18.7
			C265.9,52.1,266.3,52.5,267.1,52.5z"/>
		<path class="st0" d="M318.3,89.3H308c-1.3,0-1.7-0.8-1.3-2.3l17-65.2c0.5-1.5,1.6-2.3,3.2-2.3h14.3c1.8,0,2.9,0.8,3.2,2.3l17,65.2
			c0.4,1.5,0,2.3-1.3,2.3h-10.3c-0.8,0-1.3-0.2-1.6-0.5c-0.3-0.3-0.5-0.9-0.6-1.8l-3-11.9h-21l-3,11.9c-0.1,0.9-0.4,1.5-0.7,1.8
			C319.6,89.1,319.1,89.3,318.3,89.3z M334,32.7L326.2,64h15.9l-7.8-31.3H334z"/>
		<path class="st0" d="M408.8,89.3h-35.4c-1.5,0-2.3-0.8-2.3-2.3V21.8c0-1.5,0.8-2.3,2.3-2.3h9.2c1.5,0,2.3,0.8,2.3,2.3v54.2
			c0,0.8,0.4,1.2,1.3,1.2h22.7c1.4,0,2.2,0.8,2.2,2.4V87C410.9,88.5,410.2,89.3,408.8,89.3z"/>
		<path class="st0" d="M440.6,89.3h-9.2c-1.5,0-2.3-0.8-2.3-2.3V63.8L409.5,22c-0.3-0.7-0.3-1.2,0.1-1.7c0.3-0.5,0.8-0.7,1.5-0.7
			h11.4c1.1,0,2,0.8,2.6,2.3l10.8,26.4h0.8l10.6-26.4c0.5-1.5,1.4-2.3,2.6-2.3h11.4c0.7,0,1.2,0.2,1.6,0.7c0.3,0.4,0.3,1-0.1,1.7
			l-19.7,41.9V87C442.9,88.5,442.1,89.3,440.6,89.3z"/>
	</g>
</g>
<path class="st1" d="M43.8,65.2"/>
<path class="st1" d="M25.8,48.1"/>
<g>
	<path class="st2" d="M257.4,97.4l3.6,10.3l3.6-10.3h3.8v14.2h-2.9v-3.9l0.3-6.7l-3.8,10.6h-2l-3.8-10.6l0.3,6.7v3.9h-2.9V97.4
		H257.4z"/>
	<path class="st2" d="M279.3,108.7h-5.1l-1,2.9h-3.1l5.3-14.2h2.7l5.3,14.2h-3.1L279.3,108.7z M275,106.3h3.5l-1.8-5.3L275,106.3z"
		/>
	<path class="st2" d="M290,106.4h-2.3v5.2h-2.9V97.4h5.3c0.8,0,1.6,0.1,2.2,0.3c0.6,0.2,1.2,0.5,1.6,0.8c0.4,0.4,0.8,0.8,1,1.3
		s0.4,1.2,0.4,1.9c0,0.5-0.1,1-0.2,1.4c-0.1,0.4-0.3,0.8-0.5,1.1c-0.2,0.3-0.5,0.6-0.8,0.8c-0.3,0.2-0.7,0.4-1.1,0.6l3.1,5.8v0.1
		h-3.1L290,106.4z M287.6,104.1h2.4c0.4,0,0.7,0,1-0.2c0.3-0.1,0.5-0.2,0.7-0.4s0.3-0.4,0.4-0.7c0.1-0.3,0.1-0.5,0.1-0.9
		c0-0.7-0.2-1.2-0.6-1.6c-0.4-0.4-1-0.6-1.8-0.6h-2.4V104.1z"/>
	<path class="st2" d="M301.9,105.9l-1.5,1.6v4.1h-2.9V97.4h2.9v6.4l1.3-1.8l3.6-4.7h3.6l-5,6.3l5.2,7.9h-3.5L301.9,105.9z"/>
	<path class="st2" d="M318.7,105.5h-5.6v3.8h6.6v2.4h-9.5V97.4h9.5v2.4h-6.6v3.4h5.6V105.5z"/>
	<path class="st2" d="M332.3,99.8h-4.3v11.8H325V99.8h-4.3v-2.4h11.6V99.8z"/>
	<path class="st2" d="M337,111.6h-2.9V97.4h2.9V111.6z"/>
	<path class="st2" d="M351.3,111.6h-2.9l-5.7-9.3v9.3h-2.9V97.4h2.9l5.7,9.4v-9.4h2.9V111.6z"/>
	<path class="st2" d="M365.1,109.8c-0.2,0.2-0.4,0.4-0.7,0.6c-0.3,0.2-0.7,0.4-1.1,0.6s-1,0.4-1.6,0.5c-0.6,0.1-1.3,0.2-2.1,0.2
		c-0.9,0-1.8-0.2-2.5-0.5c-0.8-0.3-1.4-0.7-1.9-1.3c-0.5-0.6-1-1.3-1.3-2.2s-0.4-1.8-0.4-2.9v-0.8c0-1.1,0.1-2.1,0.4-2.9
		c0.3-0.9,0.7-1.6,1.2-2.2c0.5-0.6,1.1-1,1.9-1.3c0.7-0.3,1.6-0.5,2.4-0.5c0.9,0,1.7,0.1,2.4,0.3c0.7,0.2,1.2,0.6,1.7,1
		c0.5,0.4,0.8,0.9,1.1,1.5c0.3,0.6,0.4,1.2,0.5,1.9h-2.8c-0.1-0.4-0.1-0.7-0.3-1c-0.1-0.3-0.3-0.5-0.5-0.7c-0.2-0.2-0.5-0.4-0.8-0.5
		s-0.7-0.2-1.1-0.2c-1,0-1.8,0.4-2.3,1.1c-0.5,0.8-0.8,1.9-0.8,3.4v0.9c0,1.5,0.3,2.6,0.8,3.4s1.4,1.1,2.5,1.1c0.4,0,0.7,0,0.9-0.1
		c0.3,0,0.5-0.1,0.7-0.2c0.2-0.1,0.3-0.1,0.5-0.2c0.1-0.1,0.2-0.2,0.3-0.2v-2.4h-2.7v-2.2h5.6V109.8z"/>
	<path class="st2" d="M372.4,111.6V97.4h4.4c1,0,1.8,0.2,2.6,0.5c0.8,0.3,1.5,0.8,2,1.4c0.6,0.6,1,1.3,1.3,2.1
		c0.3,0.8,0.5,1.8,0.5,2.8v0.6c0,1-0.2,1.9-0.5,2.8c-0.3,0.8-0.8,1.5-1.3,2.1c-0.6,0.6-1.3,1.1-2.1,1.4s-1.7,0.5-2.6,0.5H372.4z
		 M375.4,99.8v9.5h1.4c1.2,0,2-0.4,2.6-1.1s0.9-1.9,0.9-3.3v-0.7c0-1.4-0.3-2.5-0.9-3.3c-0.6-0.7-1.5-1.1-2.6-1.1H375.4z"/>
	<path class="st2" d="M388.5,111.6h-2.9V97.4h2.9V111.6z"/>
	<path class="st2" d="M402.5,109.8c-0.2,0.2-0.4,0.4-0.7,0.6c-0.3,0.2-0.7,0.4-1.1,0.6s-1,0.4-1.6,0.5c-0.6,0.1-1.3,0.2-2.1,0.2
		c-0.9,0-1.8-0.2-2.5-0.5c-0.8-0.3-1.4-0.7-1.9-1.3c-0.5-0.6-1-1.3-1.3-2.2s-0.4-1.8-0.4-2.9v-0.8c0-1.1,0.1-2.1,0.4-2.9
		c0.3-0.9,0.7-1.6,1.2-2.2c0.5-0.6,1.1-1,1.9-1.3c0.7-0.3,1.6-0.5,2.4-0.5c0.9,0,1.7,0.1,2.4,0.3c0.7,0.2,1.2,0.6,1.7,1
		c0.5,0.4,0.8,0.9,1.1,1.5c0.3,0.6,0.4,1.2,0.5,1.9h-2.8c-0.1-0.4-0.1-0.7-0.3-1c-0.1-0.3-0.3-0.5-0.5-0.7c-0.2-0.2-0.5-0.4-0.8-0.5
		s-0.7-0.2-1.1-0.2c-1,0-1.8,0.4-2.3,1.1c-0.5,0.8-0.8,1.9-0.8,3.4v0.9c0,1.5,0.3,2.6,0.8,3.4s1.4,1.1,2.5,1.1c0.4,0,0.7,0,0.9-0.1
		c0.3,0,0.5-0.1,0.7-0.2c0.2-0.1,0.3-0.1,0.5-0.2c0.1-0.1,0.2-0.2,0.3-0.2v-2.4h-2.7v-2.2h5.6V109.8z"/>
	<path class="st2" d="M408,111.6H405V97.4h2.9V111.6z"/>
	<path class="st2" d="M421.1,99.8h-4.3v11.8h-2.9V99.8h-4.3v-2.4h11.6V99.8z"/>
	<path class="st2" d="M429.6,108.7h-5.1l-1,2.9h-3.1l5.3-14.2h2.7l5.3,14.2h-3.1L429.6,108.7z M425.3,106.3h3.5L427,101L425.3,106.3
		z"/>
	<path class="st2" d="M437.9,109.3h6.2v2.4H435V97.4h2.9V109.3z"/>
</g>
<path class="st2" d="M119.8,29.3c0-6.2-5.1-11.3-11.3-11.3c-6.2,0-11.3,5.1-11.3,11.3c0,1.7,0.4,3.3,1,4.7L84.7,47l3.6,6.6l15-14.3
	l-5.7,36.9L67.2,19.8c2.4-2.1,3.9-5.1,3.9-8.5C71.2,5.1,66.1,0,59.9,0c-6.2,0-11.3,5.1-11.3,11.3c0,3.4,1.5,6.4,3.9,8.5L22.1,76.3
	l-5.7-36.9l15.1,14.4l3.6-6.6L21.5,34.1c0.7-1.4,1-3,1-4.7c0-6.2-5.1-11.3-11.3-11.3S0,23.1,0,29.3c0,5.5,4,10.1,9.3,11.1l7.3,47.7
	l6.8,1.2l15.4-28.7l18.6,17.7h5L81,60.6l15.4,28.7l6.8-1.2l7.3-47.7C115.8,39.5,119.8,34.9,119.8,29.3z M6,29.3
	c0-2.9,2.4-5.3,5.3-5.3c2.9,0,5.3,2.4,5.3,5.3c0,2.9-2.4,5.3-5.3,5.3C8.4,34.6,6,32.3,6,29.3z M59.9,6c2.9,0,5.3,2.4,5.3,5.3
	c0,2.9-2.4,5.3-5.3,5.3c-2.9,0-5.3-2.4-5.3-5.3C54.6,8.4,57,6,59.9,6z M59.9,70.6L42.4,54l16.9-31.5c0.2,0,0.4,0,0.5,0
	c0.2,0,0.4,0,0.5,0L77.4,54L59.9,70.6z M108.5,34.6c-2.9,0-5.3-2.4-5.3-5.3c0-2.9,2.4-5.3,5.3-5.3c2.9,0,5.3,2.4,5.3,5.3
	C113.8,32.3,111.4,34.6,108.5,34.6z"/>
</svg>
